<svg xmlns="http://www.w3.org/2000/svg" width="77" height="76.994" viewBox="0 0 77 76.994"><defs><style>.a{fill:none}.b{fill:#fff}</style></defs><path d="M0 0v76.994h77V0zm76.393 21.323l-.712 2.333-3.1 10.18-3.4 11.16-1.336 4.383-4.927 16.194-2.521 8.276a3.8 3.8 0 0 1-4.749 2.531l-7.475-2.276L8.649 62.078 4.89 60.934l-1.765-.537a3.783 3.783 0 0 1-2.52-4.726l3.672-12.073 2.145-7.055 3.462-11.379 1.974-6.484 4.729-15.546A3.79 3.79 0 0 1 21.313.613l52.543 15.986a3.8 3.8 0 0 1 2.537 4.724z" class="a"/><path d="M73.865 16.594L21.324.608a3.79 3.79 0 0 0-4.726 2.521l-4.729 15.546-1.974 6.484a8.054 8.054 0 0 1 5.048-1.45 14.482 14.482 0 0 1 2.148.164v4.806c-.325-.03-.621-.064-.913-.064-1.3 0-2.272.456-2.272 1.722v1.527h2.86v4.679h-2.86v12.834H7.73V36.544h-1.3v-.005l-2.145 7.055L.613 55.667a3.783 3.783 0 0 0 2.521 4.726l1.765.537 3.759 1.144L48.182 74.1l7.475 2.276a3.8 3.8 0 0 0 4.749-2.531l2.521-8.277 4.927-16.194h-4.967v-11.21a1.659 1.659 0 0 0-1.853-1.785 4.31 4.31 0 0 0-1.4.228v12.768h-6.31V32.744a21.266 21.266 0 0 1 7.636-1.3h.339c5.571.081 7.884 2.188 7.884 5.978v7.572l3.4-11.16 3.1-10.18.712-2.333a3.8 3.8 0 0 0-2.53-4.727zM32.949 48.502a17.965 17.965 0 0 1-7.116 1.3c-.661 0-1.278-.027-1.862-.08-4.527-.416-6.75-2.44-6.75-5.863 0-4.518 4.548-5.689 9.814-6.011v-.457c0-.943-.718-1.527-2.309-1.527a15.27 15.27 0 0 0-5.069 1.04l-1.493-4.158a22.065 22.065 0 0 1 7.343-1.3c5.1 0 7.441 1.95 7.441 6.756zm18.245-13.284l-7.911 21.148h-6.626l2.631-6.988-2.739-7.27-3.856-10.243h7.149l1.826 7.622.316 1.316a29.753 29.753 0 0 1 .554 3.118h.064a30.8 30.8 0 0 1 .554-3.118l.55-2.3 1.594-6.642h7.146z" class="b"/><path d="M23.068 43.696c0 1.2 1.074 1.786 2.567 1.786a5.211 5.211 0 0 0 1.4-.131v-3.638c-2.534.096-3.967.452-3.967 1.983z" class="b"/></svg>